<?xml version="1.0" encoding="utf-8"?>
<!-- Generator: Adobe Illustrator 27.4.1, SVG Export Plug-In . SVG Version: 6.00 Build 0)  -->
<svg version="1.1" id="Capa_1" xmlns="http://www.w3.org/2000/svg" xmlns:xlink="http://www.w3.org/1999/xlink" x="0px" y="0px"
	 viewBox="0 0 449.6 140.8" style="enable-background:new 0 0 449.6 140.8;" xml:space="preserve">
<style type="text/css">
	.st0{opacity:0.5;fill:#FFFFFF;}
	.st1{fill:#79242F;}
	.st2{fill:#EE8605;}
	.st3{fill:none;stroke:#79242F;stroke-miterlimit:10;}
	.st4{fill:#FFFFFF;}
	.st5{fill:none;stroke:#FFFFFF;stroke-miterlimit:10;}
	.st6{fill:#933A55;}
	.st7{fill:#F3C951;}
</style>
<g id="Ilustración_4_00000075863383835750640370000012271978038611509909_">
	<g>
		<g>
			<path class="st1" d="M302.3,0.6c0.3-0.1,0.6-0.1,0.9-0.1c0.3,0,0.6,0,0.9,0c0.3,0,0.6,0,0.9,0c0.3,0,0.6,0.1,0.9,0.1v9.4
				c0,1,0,1.9,0.1,2.6c0.1,0.7,0.2,1.3,0.5,1.8c0.2,0.5,0.5,0.8,1,1.1c0.4,0.2,0.9,0.3,1.6,0.3c0.7,0,1.2-0.1,1.6-0.3
				c0.4-0.2,0.7-0.6,1-1.1c0.2-0.5,0.4-1.1,0.5-1.8c0.1-0.7,0.1-1.6,0.1-2.6V0.6c0.3-0.1,0.7-0.1,1-0.1c0.3,0,0.6,0,0.9,0
				c0.3,0,0.6,0,0.9,0c0.3,0,0.6,0.1,1,0.1v10.2c0,1.2-0.1,2.4-0.3,3.4c-0.2,1-0.6,1.9-1.1,2.6c-0.5,0.7-1.2,1.3-2.1,1.7
				c-0.9,0.4-2,0.6-3.3,0.6c-1.4,0-2.5-0.2-3.3-0.6c-0.9-0.4-1.6-1-2.1-1.7c-0.5-0.7-0.9-1.6-1.1-2.6c-0.2-1-0.3-2.1-0.3-3.4V0.6z"
				/>
			<path class="st1" d="M320.1,5.7c0.2-0.1,0.5-0.1,0.7-0.1c0.2,0,0.5,0,0.8,0c0.3,0,0.5,0,0.8,0c0.2,0,0.4,0.1,0.7,0.1
				c0.1,0.1,0.1,0.2,0.1,0.4c0,0.2,0.1,0.3,0.1,0.5c0,0.2,0.1,0.3,0.1,0.5c0,0.2,0,0.3,0.1,0.4c0.2-0.3,0.4-0.5,0.6-0.8
				c0.2-0.3,0.5-0.5,0.8-0.7c0.3-0.2,0.7-0.4,1.1-0.5c0.4-0.1,0.8-0.2,1.3-0.2c1.5,0,2.6,0.4,3.4,1.2c0.8,0.8,1.1,2.1,1.1,3.8v8.4
				c-0.6,0.1-1.2,0.2-1.8,0.2c-0.6,0-1.2-0.1-1.8-0.2v-7.4c0-0.9-0.1-1.6-0.4-2.1c-0.3-0.5-0.8-0.7-1.5-0.7c-0.3,0-0.6,0-0.9,0.1
				c-0.3,0.1-0.6,0.2-0.8,0.5c-0.2,0.2-0.4,0.6-0.6,1c-0.2,0.4-0.2,1-0.2,1.7v6.9c-0.6,0.1-1.2,0.2-1.8,0.2c-0.6,0-1.2-0.1-1.8-0.2
				V5.7z"/>
			<path class="st1" d="M336.4,8.5h-1.7c-0.1-0.2-0.1-0.5-0.1-0.7c0-0.2,0-0.5,0-0.7c0-0.5,0.1-0.9,0.2-1.3h5.2v13.1
				c-0.6,0.1-1.2,0.2-1.8,0.2c-0.6,0-1.1-0.1-1.7-0.2V8.5z M335.9,3.5c-0.1-0.6-0.2-1.1-0.2-1.7c0-0.5,0.1-1.1,0.2-1.7
				c0.3-0.1,0.6-0.1,0.9-0.1c0.3,0,0.6,0,0.9,0c0.3,0,0.6,0,0.9,0c0.3,0,0.6,0.1,0.9,0.1c0.1,0.3,0.1,0.6,0.1,0.8c0,0.3,0,0.6,0,0.8
				c0,0.3,0,0.5,0,0.8c0,0.3-0.1,0.6-0.1,0.9c-0.3,0.1-0.6,0.1-0.9,0.1c-0.3,0-0.6,0-0.9,0c-0.3,0-0.6,0-0.9,0
				C336.5,3.6,336.2,3.6,335.9,3.5"/>
			<path class="st1" d="M342.6,5.8c0.4-0.1,0.8-0.1,1.1-0.2c0.3,0,0.6,0,0.9,0c0.3,0,0.7,0,1,0c0.3,0,0.7,0.1,0.9,0.1l2.9,9.7
				l2.8-9.7c0.3-0.1,0.6-0.1,0.9-0.1c0.3,0,0.6,0,1,0c0.3,0,0.5,0,0.9,0c0.3,0,0.7,0.1,1.1,0.2l-5,13.1c-0.3,0.1-0.7,0.1-1,0.1
				c-0.4,0-0.7,0-0.9,0c-0.3,0-0.5,0-0.9,0c-0.3,0-0.6-0.1-0.9-0.1L342.6,5.8z"/>
			<path class="st1" d="M361,13.4c0.1,1,0.4,1.7,1.1,2.2c0.6,0.5,1.5,0.7,2.5,0.7c0.6,0,1.2-0.1,1.8-0.2c0.6-0.1,1.2-0.3,1.7-0.5
				c0.2,0.3,0.3,0.7,0.5,1.2c0.1,0.5,0.2,1,0.2,1.5c-1.3,0.5-2.8,0.8-4.5,0.8c-1.2,0-2.3-0.2-3.1-0.5c-0.9-0.3-1.6-0.8-2.1-1.4
				c-0.6-0.6-1-1.3-1.2-2.1c-0.3-0.8-0.4-1.7-0.4-2.7c0-1,0.1-1.9,0.4-2.7c0.3-0.8,0.7-1.6,1.2-2.2c0.5-0.6,1.2-1.1,2-1.5
				c0.8-0.4,1.7-0.5,2.7-0.5c0.9,0,1.7,0.2,2.4,0.5c0.7,0.3,1.3,0.8,1.8,1.3c0.5,0.6,0.9,1.2,1.1,2c0.3,0.8,0.4,1.6,0.4,2.5
				c0,0.3,0,0.6,0,1c0,0.3-0.1,0.6-0.1,0.7H361z M366.2,10.9c0-0.8-0.3-1.5-0.7-2c-0.4-0.5-1-0.7-1.7-0.7c-0.8,0-1.5,0.2-1.9,0.7
				c-0.4,0.5-0.7,1.1-0.8,2H366.2z"/>
			<path class="st1" d="M373.1,5.7c0.3-0.1,0.5-0.1,0.7-0.1c0.2,0,0.5,0,0.7,0c0.3,0,0.5,0,0.7,0c0.2,0,0.5,0.1,0.7,0.1
				c0.1,0.1,0.1,0.2,0.1,0.4c0,0.2,0.1,0.3,0.1,0.5c0,0.2,0.1,0.4,0.1,0.5c0,0.2,0,0.3,0.1,0.4c0.4-0.5,0.8-1,1.4-1.4
				c0.5-0.4,1.2-0.6,2-0.6c0.2,0,0.4,0,0.6,0c0.2,0,0.4,0,0.5,0.1c0,0.2,0.1,0.4,0.1,0.6c0,0.2,0,0.4,0,0.7c0,0.3,0,0.6,0,0.9
				c0,0.3-0.1,0.7-0.1,1c-0.2,0-0.4-0.1-0.6-0.1h-0.4c-0.3,0-0.6,0-1,0.1c-0.4,0.1-0.7,0.2-1,0.5c-0.3,0.3-0.6,0.6-0.8,1.1
				c-0.2,0.5-0.3,1.2-0.3,2.1v6.2c-0.3,0.1-0.6,0.1-0.9,0.1c-0.3,0-0.6,0-0.9,0c-0.3,0-0.6,0-0.9,0c-0.3,0-0.6-0.1-0.9-0.1V5.7z"/>
			<path class="st1" d="M386.3,13.1c-0.9-0.3-1.7-0.7-2.2-1.2c-0.5-0.5-0.8-1.3-0.8-2.4c0-1.3,0.5-2.3,1.4-3
				c0.9-0.7,2.2-1.1,3.8-1.1c0.7,0,1.3,0.1,2,0.2c0.6,0.1,1.3,0.3,2,0.5c0,0.4-0.1,0.9-0.3,1.4c-0.1,0.5-0.3,0.9-0.5,1.2
				c-0.4-0.2-0.9-0.3-1.3-0.4c-0.5-0.1-1-0.2-1.5-0.2c-0.6,0-1,0.1-1.3,0.3c-0.3,0.2-0.5,0.5-0.5,0.8c0,0.4,0.1,0.6,0.3,0.8
				c0.2,0.2,0.6,0.3,1,0.4l1.4,0.4c0.5,0.1,0.9,0.3,1.3,0.5c0.4,0.2,0.7,0.4,1,0.7c0.3,0.3,0.5,0.6,0.6,1.1c0.2,0.4,0.2,0.9,0.2,1.5
				c0,0.6-0.1,1.2-0.4,1.7c-0.3,0.5-0.6,1-1.1,1.4c-0.5,0.4-1.1,0.7-1.8,0.9c-0.7,0.2-1.5,0.3-2.4,0.3c-0.4,0-0.8,0-1.1,0
				c-0.3,0-0.7-0.1-1-0.1c-0.3-0.1-0.6-0.1-0.9-0.2c-0.3-0.1-0.6-0.2-1-0.3c0-0.5,0.1-0.9,0.2-1.4c0.1-0.5,0.3-0.9,0.5-1.4
				c0.6,0.2,1.1,0.4,1.6,0.5c0.5,0.1,1,0.2,1.6,0.2c0.2,0,0.5,0,0.8-0.1c0.3,0,0.5-0.1,0.8-0.2c0.2-0.1,0.4-0.3,0.6-0.4
				c0.2-0.2,0.2-0.4,0.2-0.7c0-0.4-0.1-0.7-0.4-0.9c-0.2-0.2-0.6-0.3-1-0.5L386.3,13.1z"/>
			<path class="st1" d="M396.8,8.5h-1.7C395.1,8.3,395,8,395,7.8c0-0.2,0-0.5,0-0.7c0-0.5,0.1-0.9,0.2-1.3h5.2v13.1
				c-0.6,0.1-1.2,0.2-1.8,0.2c-0.6,0-1.1-0.1-1.7-0.2V8.5z M396.3,3.5c-0.1-0.6-0.2-1.1-0.2-1.7c0-0.5,0.1-1.1,0.2-1.7
				c0.3-0.1,0.6-0.1,0.9-0.1c0.3,0,0.6,0,0.9,0c0.3,0,0.6,0,0.9,0c0.3,0,0.6,0.1,0.9,0.1c0.1,0.3,0.1,0.6,0.1,0.8c0,0.3,0,0.6,0,0.8
				c0,0.3,0,0.5,0,0.8c0,0.3-0.1,0.6-0.1,0.9c-0.3,0.1-0.6,0.1-0.9,0.1c-0.3,0-0.6,0-0.9,0c-0.3,0-0.6,0-0.9,0
				C396.9,3.6,396.6,3.6,396.3,3.5"/>
			<path class="st1" d="M412.4,0.3c0.3-0.1,0.6-0.1,0.9-0.1c0.3,0,0.6,0,0.9,0c0.3,0,0.6,0,0.9,0c0.3,0,0.6,0.1,0.9,0.1v18.1
				c-0.8,0.2-1.6,0.4-2.4,0.5c-0.8,0.1-1.8,0.2-3,0.2c-0.9,0-1.8-0.1-2.6-0.4c-0.8-0.2-1.5-0.6-2.2-1.2c-0.6-0.5-1.1-1.2-1.5-2.1
				c-0.4-0.8-0.5-1.9-0.5-3.1c0-1,0.2-1.9,0.5-2.7c0.3-0.9,0.8-1.6,1.3-2.2c0.6-0.6,1.3-1.1,2.1-1.5c0.8-0.4,1.7-0.5,2.8-0.5
				c0.3,0,0.6,0,1,0c0.3,0,0.6,0.1,0.9,0.2V0.3z M412.4,8.5c-0.3-0.1-0.6-0.1-0.8-0.2c-0.2,0-0.5,0-0.8,0c-0.6,0-1,0.1-1.5,0.3
				c-0.4,0.2-0.8,0.5-1,0.9c-0.3,0.4-0.5,0.8-0.6,1.3c-0.1,0.5-0.2,1.1-0.2,1.6c0,0.7,0.1,1.3,0.3,1.8c0.2,0.5,0.4,0.9,0.7,1.2
				c0.3,0.3,0.6,0.5,1.1,0.6c0.4,0.1,0.8,0.2,1.3,0.2c0.3,0,0.5,0,0.8,0c0.2,0,0.5-0.1,0.8-0.2V8.5z"/>
			<path class="st1" d="M426.7,10.2c0-0.4-0.1-0.7-0.2-1c-0.1-0.3-0.3-0.5-0.6-0.6c-0.2-0.1-0.5-0.2-0.9-0.3
				c-0.3-0.1-0.7-0.1-1.2-0.1c-0.9,0-1.9,0.2-2.9,0.5c-0.2-0.4-0.4-0.9-0.5-1.2c-0.1-0.4-0.2-0.9-0.2-1.4c0.7-0.3,1.5-0.4,2.2-0.6
				c0.7-0.1,1.4-0.2,2.1-0.2c1.8,0,3.1,0.4,4.1,1.3c1,0.8,1.5,2.2,1.5,4.1v7.6c-0.6,0.2-1.3,0.4-2.2,0.5c-0.8,0.2-1.8,0.3-2.9,0.3
				c-0.9,0-1.7-0.1-2.4-0.2c-0.7-0.2-1.3-0.4-1.8-0.8c-0.5-0.4-0.9-0.8-1.2-1.4c-0.3-0.6-0.4-1.2-0.4-2.1c0-0.8,0.2-1.5,0.5-2
				c0.3-0.5,0.8-1,1.3-1.3c0.5-0.3,1.2-0.6,1.8-0.7c0.7-0.1,1.4-0.2,2-0.2c0.5,0,1,0,1.6,0.1V10.2z M426.7,12.8
				c-0.2,0-0.4-0.1-0.7-0.1c-0.2,0-0.4,0-0.6,0c-0.8,0-1.5,0.1-2,0.4c-0.5,0.3-0.7,0.8-0.7,1.4c0,0.4,0.1,0.8,0.3,1
				c0.2,0.2,0.4,0.4,0.7,0.5c0.3,0.1,0.5,0.2,0.8,0.2c0.3,0,0.6,0,0.8,0c0.3,0,0.5,0,0.8-0.1c0.3,0,0.5-0.1,0.7-0.1V12.8z"/>
			<path class="st1" d="M442,0.3c0.3-0.1,0.6-0.1,0.9-0.1c0.3,0,0.6,0,0.9,0c0.3,0,0.6,0,0.9,0c0.3,0,0.6,0.1,0.9,0.1v18.1
				c-0.8,0.2-1.6,0.4-2.4,0.5c-0.8,0.1-1.8,0.2-3,0.2c-0.9,0-1.8-0.1-2.6-0.4c-0.8-0.2-1.5-0.6-2.2-1.2c-0.6-0.5-1.1-1.2-1.5-2.1
				c-0.4-0.8-0.5-1.9-0.5-3.1c0-1,0.2-1.9,0.5-2.7c0.3-0.9,0.8-1.6,1.3-2.2c0.6-0.6,1.3-1.1,2.1-1.5c0.8-0.4,1.7-0.5,2.8-0.5
				c0.3,0,0.6,0,1,0c0.3,0,0.6,0.1,0.9,0.2V0.3z M442,8.5c-0.3-0.1-0.6-0.1-0.8-0.2c-0.2,0-0.5,0-0.8,0c-0.6,0-1,0.1-1.5,0.3
				c-0.4,0.2-0.8,0.5-1,0.9c-0.3,0.4-0.5,0.8-0.6,1.3c-0.1,0.5-0.2,1.1-0.2,1.6c0,0.7,0.1,1.3,0.3,1.8c0.2,0.5,0.4,0.9,0.7,1.2
				c0.3,0.3,0.6,0.5,1.1,0.6c0.4,0.1,0.8,0.2,1.3,0.2c0.3,0,0.5,0,0.8,0c0.2,0,0.5-0.1,0.8-0.2V8.5z"/>
			<path class="st1" d="M312.4,68.7c0.6-0.1,1.2-0.2,1.8-0.2s1.2,0.1,1.8,0.2v8.9c-0.9,0.3-1.8,0.5-2.7,0.6c-1,0.1-1.8,0.2-2.5,0.2
				c-1.5,0-2.8-0.2-3.9-0.7c-1.1-0.5-2-1.1-2.8-1.9c-0.7-0.8-1.3-1.8-1.7-3c-0.4-1.1-0.6-2.4-0.6-3.7c0-1.4,0.2-2.6,0.6-3.8
				c0.4-1.2,0.9-2.2,1.7-3c0.7-0.8,1.6-1.5,2.7-2c1.1-0.5,2.3-0.7,3.7-0.7c0.8,0,1.6,0.1,2.3,0.2c0.7,0.1,1.4,0.3,2.2,0.6
				c0,0.5-0.1,1-0.3,1.5c-0.2,0.5-0.4,1-0.6,1.5c-0.6-0.2-1.1-0.3-1.6-0.4c-0.5-0.1-1-0.1-1.6-0.1c-1.6,0-2.9,0.5-3.7,1.6
				c-0.9,1.1-1.3,2.6-1.3,4.7c0,2.1,0.4,3.6,1.3,4.6c0.9,1,2.1,1.5,3.8,1.5c0.3,0,0.5,0,0.8-0.1c0.2,0,0.4-0.1,0.6-0.1V68.7z"/>
			<path class="st1" d="M319.9,65c0.6-0.1,1.2-0.2,1.8-0.2c0.6,0,1.2,0,1.8,0.2V72c0,0.7,0.1,1.3,0.2,1.7c0.1,0.4,0.3,0.8,0.5,1.1
				c0.2,0.3,0.5,0.4,0.8,0.6c0.3,0.1,0.7,0.2,1.2,0.2c0.6,0,1.1-0.1,1.6-0.2V65c0.6-0.1,1.2-0.2,1.8-0.2c0.6,0,1.2,0,1.8,0.2v12.6
				c-0.5,0.2-1.3,0.4-2.1,0.5c-0.9,0.2-1.8,0.3-2.8,0.3c-0.9,0-1.7-0.1-2.5-0.2c-0.8-0.1-1.5-0.4-2.1-0.9c-0.6-0.4-1.1-1.1-1.4-1.9
				c-0.4-0.8-0.5-2-0.5-3.4V65z"/>
			<path class="st1" d="M341.9,69.5c0-0.4-0.1-0.7-0.2-1c-0.1-0.3-0.3-0.5-0.6-0.6c-0.2-0.1-0.5-0.2-0.9-0.3
				c-0.3-0.1-0.7-0.1-1.2-0.1c-0.9,0-1.9,0.2-2.9,0.5c-0.2-0.4-0.4-0.9-0.5-1.2c-0.1-0.4-0.2-0.9-0.2-1.4c0.7-0.3,1.5-0.4,2.2-0.6
				c0.7-0.1,1.4-0.2,2.1-0.2c1.8,0,3.1,0.4,4.1,1.3c1,0.8,1.5,2.2,1.5,4.1v7.6c-0.6,0.2-1.3,0.4-2.2,0.5s-1.8,0.3-2.9,0.3
				c-0.9,0-1.7-0.1-2.4-0.2c-0.7-0.2-1.3-0.4-1.8-0.8c-0.5-0.4-0.9-0.8-1.2-1.4c-0.3-0.6-0.4-1.2-0.4-2.1s0.2-1.5,0.5-2
				c0.3-0.5,0.8-1,1.3-1.3c0.5-0.3,1.2-0.6,1.8-0.7c0.7-0.1,1.4-0.2,2-0.2c0.5,0,1,0,1.6,0.1V69.5z M341.9,72.1
				c-0.2,0-0.4-0.1-0.7-0.1c-0.2,0-0.4,0-0.6,0c-0.8,0-1.5,0.1-2,0.4c-0.5,0.3-0.7,0.8-0.7,1.4c0,0.4,0.1,0.8,0.3,1
				c0.2,0.2,0.4,0.4,0.7,0.5c0.3,0.1,0.5,0.2,0.8,0.2c0.3,0,0.6,0,0.8,0c0.3,0,0.5,0,0.8-0.1c0.3,0,0.5-0.1,0.7-0.1V72.1z"/>
			<path class="st1" d="M357.2,59.6c0.3-0.1,0.6-0.1,0.9-0.1c0.3,0,0.6,0,0.9,0c0.3,0,0.6,0,0.9,0c0.3,0,0.6,0.1,0.9,0.1v18.1
				c-0.8,0.2-1.6,0.4-2.4,0.5c-0.8,0.1-1.8,0.2-3,0.2c-0.9,0-1.8-0.1-2.6-0.4c-0.8-0.2-1.5-0.6-2.2-1.2c-0.6-0.5-1.1-1.2-1.5-2.1
				c-0.4-0.8-0.5-1.9-0.5-3.1c0-1,0.2-1.9,0.5-2.7c0.3-0.9,0.8-1.6,1.3-2.2c0.6-0.6,1.3-1.1,2.1-1.5c0.8-0.4,1.7-0.5,2.8-0.5
				c0.3,0,0.6,0,1,0c0.3,0,0.6,0.1,0.9,0.2V59.6z M357.2,67.7c-0.3-0.1-0.6-0.1-0.8-0.2c-0.2,0-0.5,0-0.8,0c-0.6,0-1,0.1-1.5,0.3
				c-0.4,0.2-0.8,0.5-1,0.9c-0.3,0.4-0.5,0.8-0.6,1.3c-0.1,0.5-0.2,1.1-0.2,1.6c0,0.7,0.1,1.3,0.3,1.8c0.2,0.5,0.4,0.9,0.7,1.2
				c0.3,0.3,0.6,0.5,1.1,0.6c0.4,0.1,0.8,0.2,1.3,0.2c0.3,0,0.5,0,0.8,0c0.2,0,0.5-0.1,0.8-0.2V67.7z"/>
			<path class="st1" d="M371.5,69.5c0-0.4-0.1-0.7-0.2-1c-0.1-0.3-0.3-0.5-0.6-0.6c-0.2-0.1-0.5-0.2-0.9-0.3
				c-0.3-0.1-0.7-0.1-1.2-0.1c-0.9,0-1.9,0.2-2.9,0.5c-0.2-0.4-0.4-0.9-0.5-1.2c-0.1-0.4-0.2-0.9-0.2-1.4c0.7-0.3,1.5-0.4,2.2-0.6
				c0.7-0.1,1.4-0.2,2.1-0.2c1.8,0,3.1,0.4,4.1,1.3c1,0.8,1.5,2.2,1.5,4.1v7.6c-0.6,0.2-1.3,0.4-2.2,0.5c-0.8,0.2-1.8,0.3-2.9,0.3
				c-0.9,0-1.7-0.1-2.4-0.2c-0.7-0.2-1.3-0.4-1.8-0.8c-0.5-0.4-0.9-0.8-1.2-1.4c-0.3-0.6-0.4-1.2-0.4-2.1s0.2-1.5,0.5-2
				c0.3-0.5,0.8-1,1.3-1.3c0.5-0.3,1.2-0.6,1.8-0.7c0.7-0.1,1.4-0.2,2-0.2c0.5,0,1,0,1.6,0.1V69.5z M371.5,72.1
				c-0.2,0-0.4-0.1-0.7-0.1c-0.2,0-0.4,0-0.6,0c-0.8,0-1.5,0.1-2,0.4c-0.5,0.3-0.7,0.8-0.7,1.4c0,0.4,0.1,0.8,0.3,1
				c0.2,0.2,0.4,0.4,0.7,0.5c0.3,0.1,0.5,0.2,0.8,0.2c0.3,0,0.6,0,0.8,0c0.3,0,0.5,0,0.8-0.1c0.3,0,0.5-0.1,0.7-0.1V72.1z"/>
			<path class="st1" d="M378.9,59.6c0.6-0.1,1.2-0.2,1.8-0.2c0.6,0,1.2,0.1,1.8,0.2v13.3c0,0.5,0,0.9,0.1,1.3
				c0.1,0.3,0.2,0.6,0.3,0.7c0.1,0.2,0.3,0.3,0.5,0.4c0.2,0.1,0.5,0.1,0.8,0.1c0.1,0,0.3,0,0.4,0c0.2,0,0.3,0,0.5-0.1
				c0.2,0.7,0.3,1.4,0.3,2v0.4c0,0.1,0,0.2-0.1,0.4c-0.3,0.1-0.6,0.1-1,0.2c-0.4,0-0.7,0.1-1.1,0.1c-1.3,0-2.3-0.4-3.1-1.1
				c-0.8-0.7-1.2-1.9-1.2-3.5V59.6z"/>
			<path class="st1" d="M394.5,69.5c0-0.4-0.1-0.7-0.2-1c-0.1-0.3-0.3-0.5-0.6-0.6c-0.2-0.1-0.5-0.2-0.9-0.3
				c-0.3-0.1-0.7-0.1-1.2-0.1c-0.9,0-1.9,0.2-2.9,0.5c-0.2-0.4-0.4-0.9-0.5-1.2c-0.1-0.4-0.2-0.9-0.2-1.4c0.7-0.3,1.5-0.4,2.2-0.6
				c0.7-0.1,1.4-0.2,2.1-0.2c1.8,0,3.1,0.4,4.1,1.3c1,0.8,1.5,2.2,1.5,4.1v7.6c-0.6,0.2-1.3,0.4-2.2,0.5c-0.8,0.2-1.8,0.3-2.9,0.3
				c-0.9,0-1.7-0.1-2.4-0.2c-0.7-0.2-1.3-0.4-1.8-0.8c-0.5-0.4-0.9-0.8-1.2-1.4c-0.3-0.6-0.4-1.2-0.4-2.1s0.2-1.5,0.5-2
				c0.3-0.5,0.8-1,1.3-1.3c0.5-0.3,1.2-0.6,1.8-0.7c0.7-0.1,1.4-0.2,2-0.2c0.5,0,1,0,1.6,0.1V69.5z M394.5,72.1
				c-0.2,0-0.4-0.1-0.7-0.1c-0.2,0-0.4,0-0.6,0c-0.8,0-1.5,0.1-2,0.4c-0.5,0.3-0.7,0.8-0.7,1.4c0,0.4,0.1,0.8,0.3,1
				c0.2,0.2,0.4,0.4,0.7,0.5c0.3,0.1,0.5,0.2,0.8,0.2c0.3,0,0.6,0,0.8,0c0.3,0,0.5,0,0.8-0.1c0.3,0,0.5-0.1,0.7-0.1V72.1z"/>
			<path class="st1" d="M402.7,67.8h-1.7c-0.1-0.2-0.1-0.5-0.1-0.7c0-0.2,0-0.5,0-0.7c0-0.5,0.1-0.9,0.2-1.3h5.2v13.4
				c0,1.6-0.4,2.8-1.2,3.5c-0.8,0.7-2,1.1-3.5,1.1c-0.4,0-0.9,0-1.3-0.1c-0.4-0.1-0.8-0.1-1.2-0.2c0-0.5,0-0.9,0.1-1.4
				c0.1-0.4,0.2-0.8,0.4-1.2c0.2,0,0.4,0.1,0.6,0.1c0.2,0,0.5,0,0.7,0c0.3,0,0.5,0,0.8-0.1c0.2-0.1,0.5-0.2,0.6-0.4
				c0.2-0.2,0.3-0.4,0.4-0.7c0.1-0.3,0.2-0.7,0.2-1.3V67.8z M402.1,62.7c-0.1-0.4-0.1-0.7-0.1-0.9c0-0.2,0-0.5,0-0.7
				c0-0.3,0-0.5,0-0.8c0-0.2,0.1-0.5,0.1-0.9c0.3-0.1,0.6-0.1,1-0.2c0.3,0,0.6-0.1,0.9-0.1c0.2,0,0.5,0,0.9,0.1c0.3,0,0.7,0.1,1,0.2
				c0.1,0.3,0.1,0.6,0.1,0.9c0,0.2,0,0.5,0,0.8c0,0.3,0,0.5,0,0.7c0,0.2-0.1,0.5-0.1,0.9c-0.3,0.1-0.6,0.1-1,0.2c-0.3,0-0.6,0-0.9,0
				c-0.3,0-0.5,0-0.9,0C402.7,62.9,402.4,62.8,402.1,62.7"/>
			<path class="st1" d="M417,69.5c0-0.4-0.1-0.7-0.2-1c-0.1-0.3-0.3-0.5-0.6-0.6c-0.2-0.1-0.5-0.2-0.9-0.3c-0.3-0.1-0.7-0.1-1.2-0.1
				c-0.9,0-1.9,0.2-2.9,0.5c-0.2-0.4-0.4-0.9-0.5-1.2c-0.1-0.4-0.2-0.9-0.2-1.4c0.7-0.3,1.5-0.4,2.2-0.6c0.7-0.1,1.4-0.2,2.1-0.2
				c1.8,0,3.1,0.4,4.1,1.3c1,0.8,1.5,2.2,1.5,4.1v7.6c-0.6,0.2-1.3,0.4-2.2,0.5c-0.8,0.2-1.8,0.3-2.9,0.3c-0.9,0-1.7-0.1-2.4-0.2
				c-0.7-0.2-1.3-0.4-1.8-0.8c-0.5-0.4-0.9-0.8-1.2-1.4c-0.3-0.6-0.4-1.2-0.4-2.1s0.2-1.5,0.5-2c0.3-0.5,0.8-1,1.3-1.3
				c0.5-0.3,1.2-0.6,1.8-0.7c0.7-0.1,1.4-0.2,2-0.2c0.5,0,1,0,1.6,0.1V69.5z M417,72.1c-0.2,0-0.4-0.1-0.7-0.1c-0.2,0-0.4,0-0.6,0
				c-0.8,0-1.5,0.1-2,0.4c-0.5,0.3-0.7,0.8-0.7,1.4c0,0.4,0.1,0.8,0.3,1c0.2,0.2,0.4,0.4,0.7,0.5c0.3,0.1,0.5,0.2,0.8,0.2
				c0.3,0,0.6,0,0.8,0c0.3,0,0.5,0,0.8-0.1c0.3,0,0.5-0.1,0.7-0.1V72.1z"/>
			<path class="st1" d="M424.4,65c0.3-0.1,0.5-0.1,0.7-0.1c0.2,0,0.5,0,0.7,0c0.3,0,0.5,0,0.7,0c0.2,0,0.5,0.1,0.7,0.1
				c0.1,0.1,0.1,0.2,0.1,0.4c0,0.2,0.1,0.3,0.1,0.5c0,0.2,0.1,0.4,0.1,0.5c0,0.2,0,0.3,0.1,0.4c0.4-0.5,0.8-1,1.4-1.4
				c0.5-0.4,1.2-0.6,2-0.6c0.2,0,0.4,0,0.6,0c0.2,0,0.4,0,0.5,0.1c0,0.2,0.1,0.4,0.1,0.6c0,0.2,0,0.4,0,0.7c0,0.3,0,0.6,0,0.9
				c0,0.3-0.1,0.7-0.1,1c-0.2,0-0.4-0.1-0.6-0.1h-0.4c-0.3,0-0.6,0-1,0.1c-0.4,0.1-0.7,0.2-1,0.5c-0.3,0.3-0.6,0.6-0.8,1.1
				c-0.2,0.5-0.3,1.2-0.3,2.1v6.2c-0.3,0.1-0.6,0.1-0.9,0.1c-0.3,0-0.6,0-0.9,0c-0.3,0-0.6,0-0.9,0c-0.3,0-0.6-0.1-0.9-0.1V65z"/>
			<path class="st1" d="M441.7,69.5c0-0.4-0.1-0.7-0.2-1c-0.1-0.3-0.3-0.5-0.6-0.6c-0.2-0.1-0.5-0.2-0.9-0.3
				c-0.3-0.1-0.7-0.1-1.2-0.1c-0.9,0-1.9,0.2-2.9,0.5c-0.2-0.4-0.4-0.9-0.5-1.2c-0.1-0.4-0.2-0.9-0.2-1.4c0.7-0.3,1.5-0.4,2.2-0.6
				c0.7-0.1,1.4-0.2,2.1-0.2c1.8,0,3.1,0.4,4.1,1.3c1,0.8,1.5,2.2,1.5,4.1v7.6c-0.6,0.2-1.3,0.4-2.2,0.5c-0.8,0.2-1.8,0.3-2.9,0.3
				c-0.9,0-1.7-0.1-2.4-0.2c-0.7-0.2-1.3-0.4-1.8-0.8c-0.5-0.4-0.9-0.8-1.2-1.4c-0.3-0.6-0.4-1.2-0.4-2.1s0.2-1.5,0.5-2
				c0.3-0.5,0.8-1,1.3-1.3c0.5-0.3,1.2-0.6,1.8-0.7c0.7-0.1,1.4-0.2,2-0.2c0.5,0,1,0,1.6,0.1V69.5z M441.7,72.1
				c-0.2,0-0.4-0.1-0.7-0.1c-0.2,0-0.4,0-0.6,0c-0.8,0-1.5,0.1-2,0.4c-0.5,0.3-0.7,0.8-0.7,1.4c0,0.4,0.1,0.8,0.3,1
				c0.2,0.2,0.4,0.4,0.7,0.5c0.3,0.1,0.5,0.2,0.8,0.2c0.3,0,0.6,0,0.8,0c0.3,0,0.5,0,0.8-0.1c0.3,0,0.5-0.1,0.7-0.1V72.1z"/>
			<path class="st1" d="M307.2,30.3c0.4-0.1,0.7-0.1,1-0.1c0.3,0,0.7,0,1.1,0c0.3,0,0.7,0,1,0c0.3,0,0.7,0.1,1.1,0.1l5.7,18.2
				c-0.7,0.1-1.4,0.2-2,0.2c-0.6,0-1.3-0.1-1.9-0.2l-1-3.6h-6l-1,3.6c-0.6,0.1-1.2,0.2-1.7,0.2c-0.6,0-1.2-0.1-1.8-0.2L307.2,30.3z
				 M311.2,41.8l-2.1-7.6l-2.2,7.6H311.2z"/>
			<path class="st1" d="M318.8,35.5c0.6-0.1,1.2-0.2,1.8-0.2c0.6,0,1.2,0,1.8,0.2v6.9c0,0.7,0.1,1.3,0.2,1.7
				c0.1,0.4,0.3,0.8,0.5,1.1c0.2,0.3,0.5,0.4,0.8,0.6c0.3,0.1,0.7,0.2,1.2,0.2c0.6,0,1.1-0.1,1.6-0.2V35.5c0.6-0.1,1.2-0.2,1.8-0.2
				c0.6,0,1.2,0,1.8,0.2V48c-0.5,0.2-1.3,0.4-2.1,0.5c-0.9,0.2-1.8,0.3-2.8,0.3c-0.9,0-1.7-0.1-2.5-0.2c-0.8-0.1-1.5-0.4-2.1-0.9
				c-0.6-0.4-1.1-1.1-1.4-1.9c-0.4-0.8-0.5-2-0.5-3.4V35.5z"/>
			<path class="st1" d="M333.9,38.2h-1.6l-0.1-0.5l4.7-6.1h0.6v3.8h3.1c0.1,0.3,0.1,0.5,0.1,0.7c0,0.2,0,0.4,0,0.6
				c0,0.2,0,0.5,0,0.7c0,0.2-0.1,0.5-0.1,0.7h-3.1v5.1c0,0.5,0,0.9,0.1,1.3c0.1,0.3,0.2,0.6,0.4,0.8c0.2,0.2,0.4,0.3,0.6,0.4
				c0.2,0.1,0.5,0.1,0.8,0.1c0.3,0,0.5,0,0.7-0.1c0.2,0,0.5-0.1,0.6-0.1c0.1,0.3,0.2,0.7,0.3,1c0.1,0.3,0.1,0.7,0.1,0.9
				c0,0.2,0,0.3,0,0.5c0,0.1,0,0.2,0,0.4c-0.8,0.2-1.6,0.3-2.4,0.3c-1.5,0-2.7-0.4-3.5-1.1c-0.8-0.7-1.2-1.9-1.2-3.5V38.2z"/>
			<path class="st1" d="M348.8,48.9c-1.1,0-2-0.2-2.8-0.5c-0.8-0.3-1.4-0.8-2-1.4c-0.5-0.6-0.9-1.3-1.2-2.2s-0.4-1.7-0.4-2.7
				s0.1-1.9,0.4-2.7c0.3-0.8,0.7-1.6,1.2-2.2c0.5-0.6,1.2-1.1,2-1.5c0.8-0.4,1.7-0.5,2.8-0.5c1.1,0,2,0.2,2.8,0.5
				c0.8,0.4,1.5,0.8,2,1.5c0.5,0.6,0.9,1.3,1.2,2.2c0.3,0.8,0.4,1.7,0.4,2.7s-0.1,1.9-0.4,2.7c-0.3,0.8-0.6,1.5-1.2,2.2
				c-0.5,0.6-1.2,1.1-2,1.4C350.8,48.7,349.8,48.9,348.8,48.9 M348.8,46.1c0.9,0,1.6-0.3,2-1c0.4-0.7,0.6-1.7,0.6-3
				c0-1.3-0.2-2.3-0.6-3c-0.4-0.7-1.1-1.1-2-1.1c-0.9,0-1.6,0.3-2,1.1c-0.4,0.7-0.6,1.7-0.6,3c0,1.3,0.2,2.3,0.6,3
				C347.2,45.8,347.8,46.1,348.8,46.1 M349,30.3c0.7-0.1,1.4-0.2,2.3-0.2c0.4,0,0.8,0,1.1,0c0.3,0,0.6,0.1,1,0.1l-3.8,3.1
				c-0.2,0-0.5,0.1-0.8,0.1c-0.3,0-0.6,0.1-1,0.1c-0.5,0-1.1-0.1-1.6-0.2L349,30.3z"/>
			<path class="st1" d="M357.9,35.5c0.2-0.1,0.5-0.1,0.7-0.1c0.2,0,0.5,0,0.8,0c0.3,0,0.5,0,0.8,0c0.2,0,0.4,0.1,0.7,0.1
				c0.1,0.1,0.1,0.2,0.1,0.4c0,0.2,0.1,0.3,0.1,0.5c0,0.2,0.1,0.3,0.1,0.5c0,0.2,0,0.3,0.1,0.4c0.2-0.3,0.4-0.5,0.6-0.8
				c0.2-0.3,0.5-0.5,0.8-0.7c0.3-0.2,0.7-0.4,1.1-0.5c0.4-0.1,0.8-0.2,1.3-0.2c1.5,0,2.6,0.4,3.4,1.2c0.8,0.8,1.1,2.1,1.1,3.8v8.4
				c-0.6,0.1-1.2,0.2-1.8,0.2c-0.6,0-1.2-0.1-1.8-0.2v-7.4c0-0.9-0.1-1.6-0.4-2.1c-0.3-0.5-0.8-0.7-1.5-0.7c-0.3,0-0.6,0-0.9,0.1
				c-0.3,0.1-0.6,0.2-0.8,0.5c-0.2,0.2-0.4,0.6-0.6,1c-0.2,0.4-0.2,1-0.2,1.7v6.9c-0.6,0.1-1.2,0.2-1.8,0.2c-0.6,0-1.2-0.1-1.8-0.2
				V35.5z"/>
			<path class="st1" d="M378.3,48.9c-1.1,0-2-0.2-2.8-0.5c-0.8-0.3-1.4-0.8-2-1.4c-0.5-0.6-0.9-1.3-1.2-2.2
				c-0.3-0.8-0.4-1.7-0.4-2.7c0-1,0.1-1.9,0.4-2.7c0.3-0.8,0.6-1.6,1.2-2.2c0.5-0.6,1.2-1.1,2-1.5c0.8-0.4,1.7-0.5,2.8-0.5
				c1.1,0,2,0.2,2.8,0.5c0.8,0.4,1.5,0.8,2,1.5c0.5,0.6,0.9,1.3,1.2,2.2c0.3,0.8,0.4,1.7,0.4,2.7c0,1-0.1,1.9-0.4,2.7
				c-0.3,0.8-0.6,1.5-1.2,2.2c-0.5,0.6-1.2,1.1-2,1.4C380.3,48.7,379.4,48.9,378.3,48.9 M378.3,46.1c0.9,0,1.6-0.3,2-1.1
				c0.4-0.7,0.6-1.7,0.6-3c0-1.3-0.2-2.3-0.6-3c-0.4-0.7-1.1-1.1-2-1.1c-0.9,0-1.6,0.3-2,1.1c-0.4,0.7-0.6,1.7-0.6,3
				c0,1.3,0.2,2.3,0.6,3C376.7,45.8,377.4,46.1,378.3,46.1"/>
			<path class="st1" d="M387.5,35.5c0.2-0.1,0.5-0.1,0.7-0.1c0.2,0,0.5,0,0.8,0c0.3,0,0.5,0,0.8,0c0.2,0,0.4,0.1,0.7,0.1
				c0.1,0.1,0.1,0.2,0.1,0.4c0,0.2,0.1,0.3,0.1,0.5c0,0.2,0.1,0.3,0.1,0.5c0,0.2,0,0.3,0.1,0.4c0.1-0.3,0.3-0.5,0.5-0.8
				c0.2-0.3,0.5-0.5,0.8-0.7c0.3-0.2,0.6-0.4,1-0.5c0.4-0.1,0.8-0.2,1.3-0.2c2,0,3.4,0.8,3.9,2.3c0.3-0.6,0.8-1.2,1.4-1.6
				c0.6-0.5,1.4-0.7,2.3-0.7c1.5,0,2.6,0.4,3.3,1.2c0.7,0.8,1.1,2.1,1.1,3.8v8.3c-0.6,0.1-1.2,0.2-1.8,0.2c-0.6,0-1.2-0.1-1.8-0.2
				v-7.4c0-0.9-0.1-1.6-0.3-2.1c-0.2-0.5-0.7-0.7-1.4-0.7c-0.3,0-0.6,0-0.8,0.1c-0.3,0.1-0.5,0.2-0.8,0.5c-0.2,0.2-0.4,0.5-0.6,1
				c-0.1,0.4-0.2,1-0.2,1.6v7.1c-0.6,0.1-1.2,0.2-1.8,0.2c-0.6,0-1.2-0.1-1.8-0.2v-7.4c0-0.9-0.1-1.6-0.3-2.1
				c-0.2-0.5-0.7-0.7-1.4-0.7c-0.3,0-0.6,0-0.9,0.1c-0.3,0.1-0.5,0.2-0.8,0.5c-0.2,0.2-0.4,0.6-0.5,1c-0.1,0.4-0.2,1-0.2,1.7v6.9
				c-0.6,0.1-1.2,0.2-1.8,0.2c-0.6,0-1.2-0.1-1.8-0.2V35.5z"/>
			<path class="st1" d="M416.3,39.9c0-0.4-0.1-0.7-0.2-1c-0.1-0.3-0.3-0.5-0.6-0.6c-0.2-0.1-0.5-0.2-0.9-0.3
				c-0.3-0.1-0.7-0.1-1.2-0.1c-0.9,0-1.9,0.2-2.9,0.5c-0.2-0.4-0.4-0.9-0.5-1.2c-0.1-0.4-0.2-0.9-0.2-1.4c0.7-0.3,1.5-0.4,2.2-0.6
				c0.7-0.1,1.4-0.2,2.1-0.2c1.8,0,3.1,0.4,4.1,1.3c1,0.8,1.5,2.2,1.5,4.1v7.6c-0.6,0.2-1.3,0.4-2.2,0.5c-0.8,0.2-1.8,0.3-2.9,0.3
				c-0.9,0-1.7-0.1-2.4-0.2c-0.7-0.2-1.3-0.4-1.8-0.8c-0.5-0.4-0.9-0.8-1.2-1.4c-0.3-0.6-0.4-1.2-0.4-2.1c0-0.8,0.2-1.5,0.5-2
				c0.3-0.5,0.8-1,1.3-1.3c0.5-0.3,1.2-0.6,1.8-0.7c0.7-0.1,1.4-0.2,2-0.2c0.5,0,1,0,1.6,0.1V39.9z M416.3,42.5
				c-0.2,0-0.4-0.1-0.7-0.1c-0.2,0-0.4,0-0.6,0c-0.8,0-1.5,0.1-2,0.4c-0.5,0.3-0.7,0.8-0.7,1.4c0,0.4,0.1,0.8,0.3,1
				c0.2,0.2,0.4,0.4,0.7,0.5c0.3,0.1,0.5,0.2,0.8,0.2c0.3,0,0.6,0,0.8,0c0.3,0,0.5,0,0.8-0.1c0.3,0,0.5-0.1,0.7-0.1V42.5z"/>
			<path class="st1" d="M432,35.1c0.2,0,0.4-0.1,0.7-0.1c0.2,0,0.4,0,0.6,0c0.2,0,0.4,0,0.6,0c0.2,0,0.4,0,0.7,0.1v13.3
				c-0.6,0.2-1.2,0.3-1.8,0.4c-0.6,0.1-1.3,0.1-2.2,0.1c-0.7,0-1.3-0.1-1.9-0.3c-0.6-0.2-1.1-0.5-1.6-0.9c-0.5-0.4-0.8-0.9-1.1-1.5
				c-0.3-0.6-0.4-1.4-0.4-2.3c0-0.7,0.1-1.4,0.3-2c0.2-0.6,0.6-1.2,1-1.6c0.4-0.5,0.9-0.8,1.6-1.1c0.6-0.3,1.3-0.4,2-0.4
				c0.2,0,0.5,0,0.7,0c0.2,0,0.5,0.1,0.7,0.1V35.1z M432,41c-0.2-0.1-0.4-0.1-0.6-0.1c-0.2,0-0.4,0-0.6,0c-0.4,0-0.8,0.1-1.1,0.3
				c-0.3,0.2-0.6,0.4-0.8,0.7c-0.2,0.3-0.3,0.6-0.4,1c-0.1,0.4-0.1,0.8-0.1,1.2c0,0.5,0.1,0.9,0.2,1.3c0.1,0.4,0.3,0.6,0.5,0.8
				c0.2,0.2,0.5,0.4,0.8,0.5c0.3,0.1,0.6,0.1,1,0.1c0.2,0,0.4,0,0.6,0c0.2,0,0.4-0.1,0.6-0.1V41z"/>
			<path class="st1" d="M439.2,44.7c0.1,0.7,0.3,1.3,0.8,1.6c0.5,0.3,1.1,0.5,1.9,0.5c0.4,0,0.9,0,1.3-0.1c0.4-0.1,0.9-0.2,1.3-0.3
				c0.1,0.2,0.3,0.5,0.4,0.9c0.1,0.3,0.2,0.7,0.2,1.1c-1,0.4-2.1,0.6-3.3,0.6c-0.9,0-1.7-0.1-2.3-0.4c-0.6-0.2-1.2-0.6-1.6-1
				c-0.4-0.4-0.7-1-0.9-1.6c-0.2-0.6-0.3-1.3-0.3-2c0-0.7,0.1-1.4,0.3-2c0.2-0.6,0.5-1.2,0.9-1.6c0.4-0.5,0.9-0.8,1.5-1.1
				c0.6-0.3,1.2-0.4,2-0.4c0.7,0,1.3,0.1,1.8,0.4c0.5,0.2,1,0.6,1.3,1c0.4,0.4,0.6,0.9,0.8,1.5c0.2,0.6,0.3,1.2,0.3,1.8
				c0,0.2,0,0.5,0,0.7c0,0.2,0,0.4-0.1,0.5H439.2z M443,42.8c0-0.6-0.2-1.1-0.5-1.4c-0.3-0.4-0.7-0.5-1.3-0.5
				c-0.6,0-1.1,0.2-1.4,0.5c-0.3,0.3-0.5,0.8-0.6,1.5H443z"/>
			<path class="st1" d="M284.7,71.5c0.6,0,1.3,0.2,1.9,0.5c0.6,0.3,1.1,0.8,1.4,1.4c0.3,0.6,0.5,1.3,0.5,1.9c0,0.7-0.2,1.3-0.5,1.9
				c-0.3,0.6-0.8,1.1-1.4,1.4c-0.6,0.3-1.2,0.5-1.9,0.5c-0.7,0-1.3-0.2-1.9-0.5c-0.6-0.3-1.1-0.8-1.4-1.4c-0.3-0.6-0.5-1.2-0.5-1.9
				c0-0.7,0.2-1.3,0.5-1.9c0.3-0.6,0.8-1.1,1.4-1.4C283.4,71.7,284,71.5,284.7,71.5 M284.7,72.3c-0.5,0-1,0.1-1.5,0.4
				c-0.5,0.3-0.9,0.6-1.1,1.1c-0.3,0.5-0.4,1-0.4,1.5c0,0.5,0.1,1.1,0.4,1.5c0.3,0.5,0.7,0.9,1.1,1.1c0.5,0.3,1,0.4,1.5,0.4
				c0.5,0,1-0.1,1.5-0.4c0.5-0.3,0.9-0.7,1.1-1.1c0.3-0.5,0.4-1,0.4-1.5c0-0.5-0.1-1.1-0.4-1.5c-0.3-0.5-0.6-0.9-1.1-1.1
				C285.7,72.4,285.2,72.3,284.7,72.3 M282.9,77.4v-4.1h0.8c0.8,0,1.2,0,1.3,0c0.3,0,0.5,0.1,0.6,0.2c0.2,0.1,0.3,0.2,0.4,0.4
				c0.1,0.2,0.1,0.4,0.1,0.6c0,0.3-0.1,0.5-0.3,0.8c-0.2,0.2-0.5,0.3-0.8,0.4c0.1,0,0.2,0.1,0.3,0.1c0.1,0.1,0.2,0.2,0.3,0.3
				c0,0,0.1,0.2,0.3,0.5l0.5,0.8h-1l-0.3-0.7c-0.2-0.4-0.4-0.7-0.6-0.8c-0.2-0.1-0.3-0.2-0.6-0.2h-0.2v1.7H282.9z M283.7,75.1h0.3
				c0.5,0,0.8,0,0.9-0.1c0.1,0,0.2-0.1,0.3-0.2c0.1-0.1,0.1-0.2,0.1-0.3c0-0.1,0-0.2-0.1-0.3c-0.1-0.1-0.2-0.2-0.3-0.2
				c-0.1,0-0.4-0.1-0.9-0.1h-0.3V75.1z"/>
			<path class="st2" d="M171.1,49.2c16-0.6,32.2-0.1,32.2-0.1s-32.9,5.5-41.9,19.4L171.1,49.2z"/>
			<path class="st1" d="M274.6,42.9l0.1-0.1h-19.2c6.3,4.5,5.8,13,5.8,13l0,3.4l0,0v7.4c-3.4,1.2-6.8,1.9-10.1,1.9
				c-7.9,0-14.4-2.7-19.4-8.1c-5-5.4-7.4-12.4-7.4-21c0-8.5,2.6-15.3,7.9-20.5c5.2-5.2,12.2-7.8,20.8-7.8c5.5,0,10.9,1.4,16.2,4.3
				l4.9-9.1c-7.1-4-14.6-6-22.6-6c-12.7,0-23.1,3.7-31.3,11.1c-8.2,7.4-12.3,16.9-12.3,28.4c0,2.7,0.2,5.3,0.7,7.8L191.4,1.3h-11.8
				l0,0h-8.2c5.3,3.9,4.5,8.6,4.1,9.9L157.6,55c0.3-2.8,0.5-6.4,0.5-10.8V1.3h-13.7v40.3c0,8-0.6,13.6-1.7,16.6
				c-2.5,6.7-7.6,10.1-15.1,10.1c-5.9,0-10.2-2.1-12.9-6.5c-1.5-2.4-2.5-5.6-2.9-9.6c-0.2-1.9-0.3-5.3-0.3-10.3V1.3H96.1v0h-5.8
				c4.7,3.4,5.6,8.9,5.8,11.5v30.4c0,5.7,0.1,9.7,0.4,11.9c0.5,4.4,1.7,8.1,3.5,11.1c5.1,8.5,14,12.8,26.8,12.8
				c11.5,0,20-3.7,25.4-10.9l-3.9,9.6H161l22.4-59.7l20.2,59.7h16.5l-6.8-18c1.8,2.9,4,5.7,6.7,8.2c8,7.4,18.2,11.2,30.6,11.2
				c8,0,16.7-1.6,26.1-4.7V42.9H274.6z"/>
			<path class="st1" d="M4.1,133.9v-15.5h5c1.9,0,3.1,0.1,3.7,0.2c0.9,0.2,1.6,0.7,2.2,1.5c0.6,0.8,0.9,1.8,0.9,3
				c0,1-0.2,1.8-0.5,2.4c-0.3,0.6-0.8,1.2-1.3,1.5c-0.5,0.4-1.1,0.6-1.6,0.7c-0.7,0.1-1.8,0.2-3.2,0.2h-2v5.8H4.1z M7.2,121v4.4h1.7
				c1.2,0,2.1-0.1,2.5-0.2c0.4-0.2,0.7-0.4,1-0.8c0.2-0.3,0.4-0.7,0.4-1.2c0-0.6-0.2-1-0.5-1.4c-0.3-0.4-0.8-0.6-1.3-0.7
				c-0.4-0.1-1.1-0.1-2.3-0.1H7.2z"/>
			<path class="st1" d="M17.5,128.2c0-1,0.2-1.9,0.7-2.9c0.5-0.9,1.2-1.6,2.1-2.1c0.9-0.5,1.9-0.7,3-0.7c1.7,0,3.1,0.6,4.2,1.7
				c1.1,1.1,1.6,2.5,1.6,4.2c0,1.7-0.5,3.1-1.6,4.2c-1.1,1.1-2.5,1.7-4.1,1.7c-1,0-2-0.2-2.9-0.7c-0.9-0.5-1.6-1.1-2.1-2
				C17.7,130.5,17.5,129.4,17.5,128.2 M20.5,128.3c0,1.1,0.3,2,0.8,2.6c0.5,0.6,1.2,0.9,2,0.9c0.8,0,1.4-0.3,2-0.9
				c0.5-0.6,0.8-1.5,0.8-2.6c0-1.1-0.3-1.9-0.8-2.5c-0.5-0.6-1.2-0.9-2-0.9c-0.8,0-1.4,0.3-2,0.9C20.8,126.3,20.5,127.2,20.5,128.3"
				/>
			<polygon class="st1" points="33.1,133.9 29.6,122.7 32.4,122.7 34.6,130.1 36.5,122.7 39.4,122.7 41.2,130.1 43.4,122.7 
				46.3,122.7 42.7,133.9 39.8,133.9 37.9,126.7 36,133.9 			"/>
			<path class="st1" d="M54,130.4l3,0.5c-0.4,1.1-1,1.9-1.8,2.5c-0.8,0.6-1.8,0.9-3.1,0.9c-2,0-3.4-0.6-4.3-1.9
				c-0.7-1-1.1-2.3-1.1-3.9c0-1.9,0.5-3.3,1.5-4.4c1-1.1,2.2-1.6,3.7-1.6c1.7,0,3,0.6,4,1.7c1,1.1,1.4,2.8,1.4,5.1h-7.4
				c0,0.9,0.3,1.6,0.7,2.1c0.5,0.5,1,0.7,1.7,0.7c0.5,0,0.9-0.1,1.2-0.4C53.6,131.3,53.8,130.9,54,130.4 M54.2,127.4
				c0-0.9-0.2-1.5-0.7-2c-0.4-0.4-0.9-0.7-1.5-0.7c-0.6,0-1.2,0.2-1.6,0.7c-0.4,0.5-0.6,1.1-0.6,1.9H54.2z"/>
			<path class="st1" d="M62,133.9h-3v-11.2h2.8v1.6c0.5-0.8,0.9-1.3,1.3-1.5c0.4-0.2,0.8-0.4,1.3-0.4c0.7,0,1.3,0.2,2,0.6l-0.9,2.6
				c-0.5-0.3-1-0.5-1.4-0.5c-0.4,0-0.8,0.1-1.1,0.3c-0.3,0.2-0.5,0.6-0.7,1.2c-0.2,0.6-0.2,1.9-0.2,3.8V133.9z"/>
			<path class="st1" d="M73.7,130.4l3,0.5c-0.4,1.1-1,1.9-1.8,2.5c-0.8,0.6-1.8,0.9-3.1,0.9c-2,0-3.4-0.6-4.3-1.9
				c-0.7-1-1.1-2.3-1.1-3.9c0-1.9,0.5-3.3,1.5-4.4c1-1.1,2.2-1.6,3.7-1.6c1.7,0,3,0.6,4,1.7c1,1.1,1.4,2.8,1.4,5.1h-7.4
				c0,0.9,0.3,1.6,0.7,2.1c0.5,0.5,1,0.7,1.7,0.7c0.5,0,0.9-0.1,1.2-0.4C73.3,131.3,73.6,130.9,73.7,130.4 M73.9,127.4
				c0-0.9-0.2-1.5-0.7-2c-0.4-0.4-0.9-0.7-1.5-0.7c-0.6,0-1.2,0.2-1.6,0.7c-0.4,0.5-0.6,1.1-0.6,1.9H73.9z"/>
			<path class="st1" d="M89.2,133.9h-2.8v-1.6c-0.5,0.6-1,1.1-1.6,1.4c-0.6,0.3-1.3,0.5-1.9,0.5c-1.3,0-2.4-0.5-3.3-1.6
				c-0.9-1-1.4-2.5-1.4-4.4c0-1.9,0.4-3.4,1.3-4.3c0.9-1,2-1.5,3.4-1.5c1.3,0,2.3,0.5,3.3,1.6v-5.6h3V133.9z M81.3,128.1
				c0,1.2,0.2,2.1,0.5,2.6c0.5,0.8,1.1,1.2,2,1.2c0.7,0,1.3-0.3,1.7-0.9c0.5-0.6,0.7-1.5,0.7-2.6c0-1.3-0.2-2.2-0.7-2.8
				c-0.5-0.6-1.1-0.9-1.8-0.9c-0.7,0-1.3,0.3-1.8,0.8C81.5,126.1,81.3,127,81.3,128.1"/>
			<path class="st1" d="M97.3,133.9v-15.5h3v5.6c0.9-1,2-1.6,3.3-1.6c1.4,0,2.5,0.5,3.4,1.5c0.9,1,1.3,2.4,1.3,4.3
				c0,1.9-0.5,3.4-1.4,4.4c-0.9,1-2,1.6-3.3,1.6c-0.6,0-1.3-0.2-1.9-0.5c-0.6-0.3-1.2-0.8-1.6-1.4v1.6H97.3z M100.3,128.1
				c0,1.2,0.2,2,0.5,2.6c0.5,0.8,1.2,1.2,2.1,1.2c0.7,0,1.2-0.3,1.7-0.8c0.5-0.6,0.7-1.4,0.7-2.7c0-1.3-0.2-2.2-0.7-2.8
				c-0.5-0.6-1.1-0.9-1.8-0.9c-0.7,0-1.3,0.3-1.8,0.8C100.5,126.1,100.3,126.9,100.3,128.1"/>
			<path class="st1" d="M108.9,122.7h3.2l2.7,8l2.6-8h3.1l-4,10.8l-0.7,2c-0.3,0.7-0.5,1.2-0.7,1.5c-0.2,0.3-0.5,0.6-0.8,0.8
				c-0.3,0.2-0.7,0.4-1.1,0.5c-0.4,0.1-1,0.2-1.5,0.2c-0.6,0-1.1-0.1-1.7-0.2l-0.3-2.3c0.5,0.1,0.9,0.1,1.3,0.1
				c0.7,0,1.2-0.2,1.5-0.6c0.3-0.4,0.6-0.9,0.8-1.5L108.9,122.7z"/>
			<path class="st1" d="M150,134.9h-4.4l-1.8-4.6h-8l-1.7,4.6h-4.3l7.8-20.1h4.3L150,134.9z M142.6,126.9l-2.8-7.5l-2.7,7.5H142.6z"
				/>
			<path class="st1" d="M155.4,134.9h-3.9v-14.6h3.6v2.1c0.6-1,1.2-1.6,1.7-1.9c0.5-0.3,1-0.5,1.7-0.5c0.9,0,1.7,0.2,2.5,0.7
				l-1.2,3.4c-0.6-0.4-1.3-0.6-1.8-0.6c-0.5,0-1,0.1-1.4,0.4c-0.4,0.3-0.7,0.8-0.9,1.6c-0.2,0.8-0.3,2.4-0.3,4.9V134.9z"/>
			<path class="st1" d="M162.1,114.8h3.9v3.6h-3.9V114.8z M162.1,120.3h3.9v14.6h-3.9V120.3z"/>
			<path class="st1" d="M167.9,134.9v-3l5.5-6.3c0.9-1,1.6-1.8,2-2.2c-0.4,0-1,0-1.8,0.1l-5.1,0v-3.2h12v2.7l-5.6,6.4l-2,2.1
				c1.1-0.1,1.7-0.1,2-0.1h6v3.4H167.9z"/>
			<path class="st1" d="M182.1,127.4c0-1.3,0.3-2.5,0.9-3.7c0.6-1.2,1.5-2.1,2.7-2.7c1.2-0.6,2.4-0.9,3.9-0.9c2.2,0,4,0.7,5.4,2.1
				c1.4,1.4,2.1,3.2,2.1,5.4c0,2.2-0.7,4-2.1,5.5c-1.4,1.4-3.2,2.2-5.4,2.2c-1.3,0-2.6-0.3-3.8-0.9c-1.2-0.6-2.1-1.5-2.8-2.7
				C182.4,130.5,182.1,129.1,182.1,127.4 M186.1,127.6c0,1.4,0.3,2.6,1,3.3c0.7,0.8,1.5,1.2,2.5,1.2c1,0,1.8-0.4,2.5-1.2
				c0.7-0.8,1-1.9,1-3.3c0-1.4-0.3-2.5-1-3.3c-0.7-0.8-1.5-1.2-2.5-1.2c-1,0-1.8,0.4-2.5,1.2C186.4,125.1,186.1,126.2,186.1,127.6"
				/>
			<path class="st1" d="M212.9,134.9h-3.9v-7.4c0-1.6-0.1-2.6-0.2-3.1c-0.2-0.5-0.4-0.8-0.8-1.1c-0.4-0.3-0.8-0.4-1.3-0.4
				c-0.7,0-1.3,0.2-1.8,0.5c-0.5,0.4-0.9,0.8-1.1,1.5c-0.2,0.6-0.3,1.7-0.3,3.3v6.6h-3.9v-14.6h3.6v2.1c1.3-1.6,2.9-2.5,4.8-2.5
				c0.8,0,1.6,0.2,2.3,0.5c0.7,0.3,1.2,0.7,1.6,1.2c0.4,0.5,0.6,1,0.8,1.6c0.1,0.6,0.2,1.5,0.2,2.6V134.9z"/>
			<path class="st1" d="M219.2,124.8l-3.5-0.6c0.4-1.4,1.1-2.4,2-3.1c1-0.7,2.4-1,4.3-1c1.7,0,3,0.2,3.8,0.6
				c0.8,0.4,1.4,0.9,1.8,1.5c0.3,0.6,0.5,1.8,0.5,3.4l0,4.5c0,1.3,0.1,2.2,0.2,2.8c0.1,0.6,0.4,1.3,0.7,2h-3.8
				c-0.1-0.3-0.2-0.6-0.4-1.1c-0.1-0.2-0.1-0.4-0.1-0.5c-0.7,0.6-1.4,1.1-2.1,1.4c-0.7,0.3-1.5,0.5-2.4,0.5c-1.5,0-2.7-0.4-3.5-1.2
				c-0.9-0.8-1.3-1.8-1.3-3.1c0-0.8,0.2-1.6,0.6-2.2c0.4-0.6,0.9-1.1,1.7-1.5c0.7-0.3,1.7-0.6,3.1-0.9c1.8-0.3,3-0.7,3.7-0.9V125
				c0-0.7-0.2-1.3-0.5-1.6c-0.4-0.3-1.1-0.5-2.1-0.5c-0.7,0-1.2,0.1-1.6,0.4C219.8,123.6,219.5,124.1,219.2,124.8 M224.4,127.9
				c-0.5,0.2-1.3,0.4-2.3,0.6c-1.1,0.2-1.8,0.5-2.1,0.7c-0.5,0.4-0.8,0.8-0.8,1.4c0,0.5,0.2,1,0.6,1.4c0.4,0.4,0.9,0.6,1.5,0.6
				c0.7,0,1.4-0.2,2-0.7c0.5-0.3,0.8-0.8,0.9-1.3c0.1-0.3,0.2-1,0.2-1.9V127.9z"/>
			<path class="st1" d="M239.7,128.4l3.9-0.4c0.2,1.3,0.7,2.3,1.4,2.9c0.7,0.6,1.7,0.9,2.9,0.9c1.3,0,2.3-0.3,3-0.8
				c0.7-0.6,1-1.2,1-1.9c0-0.5-0.1-0.9-0.4-1.2c-0.3-0.3-0.8-0.6-1.5-0.9c-0.5-0.2-1.6-0.5-3.2-0.9c-2.2-0.5-3.7-1.2-4.6-2
				c-1.2-1.1-1.9-2.5-1.9-4c0-1,0.3-2,0.9-2.9c0.6-0.9,1.4-1.6,2.5-2c1.1-0.5,2.4-0.7,4-0.7c2.5,0,4.4,0.6,5.7,1.7
				c1.3,1.1,1.9,2.6,2,4.4l-4.1,0.2c-0.2-1-0.5-1.8-1.1-2.2c-0.6-0.5-1.4-0.7-2.6-0.7c-1.2,0-2.1,0.2-2.8,0.7
				c-0.4,0.3-0.6,0.7-0.6,1.2c0,0.5,0.2,0.9,0.6,1.2c0.5,0.4,1.8,0.9,3.7,1.3c2,0.5,3.4,0.9,4.4,1.4c0.9,0.5,1.7,1.2,2.2,2
				c0.5,0.9,0.8,1.9,0.8,3.2c0,1.2-0.3,2.2-1,3.2c-0.6,1-1.5,1.8-2.7,2.2c-1.2,0.5-2.6,0.7-4.4,0.7c-2.5,0-4.5-0.6-5.9-1.8
				C240.8,132.3,239.9,130.6,239.7,128.4"/>
			<path class="st1" d="M265.6,120.3v3.1H263v5.9c0,1.2,0,1.9,0.1,2.1c0,0.2,0.2,0.4,0.3,0.5c0.2,0.1,0.4,0.2,0.7,0.2
				c0.4,0,0.9-0.1,1.5-0.4l0.3,3c-0.9,0.4-1.9,0.6-3,0.6c-0.7,0-1.3-0.1-1.9-0.3c-0.6-0.2-1-0.5-1.2-0.9c-0.3-0.4-0.4-0.9-0.5-1.5
				c-0.1-0.4-0.1-1.4-0.1-2.7v-6.3h-1.8v-3.1h1.8v-2.9l3.9-2.2v5.1H265.6z"/>
			<path class="st1" d="M270.7,124.8l-3.5-0.6c0.4-1.4,1.1-2.4,2-3.1c1-0.7,2.4-1,4.3-1c1.7,0,3,0.2,3.8,0.6
				c0.8,0.4,1.4,0.9,1.8,1.5c0.3,0.6,0.5,1.8,0.5,3.4l0,4.5c0,1.3,0.1,2.2,0.2,2.8c0.1,0.6,0.4,1.3,0.7,2h-3.8
				c-0.1-0.3-0.2-0.6-0.4-1.1c-0.1-0.2-0.1-0.4-0.1-0.5c-0.7,0.6-1.4,1.1-2.1,1.4c-0.7,0.3-1.5,0.5-2.4,0.5c-1.5,0-2.7-0.4-3.5-1.2
				c-0.9-0.8-1.3-1.8-1.3-3.1c0-0.8,0.2-1.6,0.6-2.2c0.4-0.6,0.9-1.1,1.7-1.5c0.7-0.3,1.7-0.6,3.1-0.9c1.8-0.3,3-0.7,3.7-0.9V125
				c0-0.7-0.2-1.3-0.5-1.6c-0.4-0.3-1.1-0.5-2.1-0.5c-0.7,0-1.2,0.1-1.6,0.4C271.2,123.6,270.9,124.1,270.7,124.8 M275.8,127.9
				c-0.5,0.2-1.3,0.4-2.3,0.6c-1.1,0.2-1.8,0.5-2.1,0.7c-0.5,0.4-0.8,0.8-0.8,1.4c0,0.5,0.2,1,0.6,1.4c0.4,0.4,0.9,0.6,1.5,0.6
				c0.7,0,1.4-0.2,2-0.7c0.5-0.3,0.8-0.8,0.9-1.3c0.1-0.3,0.2-1,0.2-1.9V127.9z"/>
			<path class="st1" d="M289.6,120.3v3.1H287v5.9c0,1.2,0,1.9,0.1,2.1c0,0.2,0.2,0.4,0.3,0.5c0.2,0.1,0.4,0.2,0.7,0.2
				c0.4,0,0.9-0.1,1.5-0.4l0.3,3c-0.9,0.4-1.9,0.6-3,0.6c-0.7,0-1.3-0.1-1.9-0.3c-0.6-0.2-1-0.5-1.2-0.9c-0.3-0.4-0.4-0.9-0.5-1.5
				c-0.1-0.4-0.1-1.4-0.1-2.7v-6.3h-1.8v-3.1h1.8v-2.9l3.9-2.2v5.1H289.6z"/>
			<path class="st1" d="M300.2,130.3l3.8,0.6c-0.5,1.4-1.3,2.5-2.3,3.2c-1.1,0.7-2.4,1.1-4,1.1c-2.5,0-4.4-0.8-5.6-2.5
				c-1-1.3-1.4-3-1.4-5c0-2.4,0.6-4.3,1.9-5.7c1.3-1.4,2.9-2,4.8-2c2.2,0,3.9,0.7,5.1,2.1c1.3,1.4,1.9,3.6,1.8,6.6h-9.7
				c0,1.1,0.3,2,0.9,2.7c0.6,0.6,1.3,1,2.2,1c0.6,0,1.1-0.2,1.5-0.5C299.7,131.5,300,131,300.2,130.3 M300.5,126.4
				c0-1.1-0.3-2-0.9-2.5c-0.5-0.6-1.2-0.9-2-0.9c-0.8,0-1.5,0.3-2.1,0.9c-0.5,0.6-0.8,1.4-0.8,2.5H300.5z"/>
			<path class="st1" d="M316.1,114.8h4.1v10.9c0,1.7,0,2.8,0.2,3.4c0.2,0.8,0.6,1.5,1.2,2c0.7,0.5,1.5,0.7,2.7,0.7
				c1.2,0,2-0.2,2.6-0.7c0.6-0.5,0.9-1,1.1-1.7c0.1-0.7,0.2-1.8,0.2-3.4v-11.1h4.1v10.6c0,2.4-0.1,4.1-0.3,5.1
				c-0.2,1-0.6,1.8-1.2,2.5c-0.6,0.7-1.4,1.2-2.4,1.6c-1,0.4-2.3,0.6-3.9,0.6c-1.9,0-3.4-0.2-4.4-0.7c-1-0.4-1.8-1-2.4-1.7
				c-0.6-0.7-1-1.5-1.1-2.2c-0.3-1.2-0.4-2.9-0.4-5.1V114.8z"/>
			<path class="st1" d="M349.2,134.9h-3.9v-7.4c0-1.6-0.1-2.6-0.2-3.1c-0.2-0.5-0.4-0.8-0.8-1.1c-0.4-0.3-0.8-0.4-1.3-0.4
				c-0.7,0-1.3,0.2-1.8,0.5c-0.5,0.4-0.9,0.8-1.1,1.5c-0.2,0.6-0.3,1.7-0.3,3.3v6.6h-3.9v-14.6h3.6v2.1c1.3-1.6,2.9-2.5,4.8-2.5
				c0.8,0,1.6,0.2,2.3,0.5c0.7,0.3,1.2,0.7,1.6,1.2c0.4,0.5,0.6,1,0.8,1.6c0.1,0.6,0.2,1.5,0.2,2.6V134.9z"/>
			<path class="st1" d="M352.6,114.8h3.9v3.6h-3.9V114.8z M352.6,120.3h3.9v14.6h-3.9V120.3z"/>
			<path class="st1" d="M363.9,134.9l-5.9-14.6h4l2.7,7.4l0.8,2.5c0.2-0.6,0.3-1,0.4-1.2c0.1-0.4,0.3-0.8,0.4-1.2l2.8-7.4h4
				l-5.8,14.6H363.9z"/>
			<path class="st1" d="M383.5,130.3l3.8,0.6c-0.5,1.4-1.3,2.5-2.3,3.2c-1.1,0.7-2.4,1.1-4,1.1c-2.5,0-4.4-0.8-5.6-2.5
				c-1-1.3-1.4-3-1.4-5c0-2.4,0.6-4.3,1.9-5.7c1.3-1.4,2.9-2,4.8-2c2.2,0,3.9,0.7,5.1,2.1c1.3,1.4,1.9,3.6,1.8,6.6h-9.7
				c0,1.1,0.3,2,0.9,2.7c0.6,0.6,1.3,1,2.2,1c0.6,0,1.1-0.2,1.5-0.5C383,131.5,383.3,131,383.5,130.3 M383.7,126.4
				c0-1.1-0.3-2-0.9-2.5c-0.5-0.6-1.2-0.9-2-0.9c-0.8,0-1.5,0.3-2.1,0.9c-0.5,0.6-0.8,1.4-0.8,2.5H383.7z"/>
			<path class="st1" d="M393.9,134.9h-3.9v-14.6h3.6v2.1c0.6-1,1.2-1.6,1.7-1.9c0.5-0.3,1-0.5,1.7-0.5c0.9,0,1.7,0.2,2.5,0.7
				l-1.2,3.4c-0.6-0.4-1.3-0.6-1.8-0.6c-0.5,0-1,0.1-1.4,0.4c-0.4,0.3-0.7,0.8-0.9,1.6c-0.2,0.8-0.3,2.4-0.3,4.9V134.9z"/>
			<path class="st1" d="M399.3,130.7l3.9-0.6c0.2,0.7,0.5,1.3,1,1.7c0.5,0.4,1.2,0.6,2.1,0.6c1,0,1.7-0.2,2.2-0.5
				c0.3-0.3,0.5-0.6,0.5-1c0-0.3-0.1-0.5-0.3-0.7c-0.2-0.2-0.6-0.4-1.3-0.5c-3.1-0.7-5.1-1.3-5.9-1.9c-1.2-0.8-1.7-1.9-1.7-3.3
				c0-1.3,0.5-2.3,1.5-3.2c1-0.9,2.5-1.3,4.6-1.3c2,0,3.5,0.3,4.4,1c1,0.6,1.6,1.6,2,2.9l-3.6,0.7c-0.2-0.6-0.5-1-0.9-1.3
				c-0.4-0.3-1.1-0.5-1.9-0.5c-1,0-1.7,0.1-2.2,0.4c-0.3,0.2-0.4,0.5-0.4,0.8c0,0.3,0.1,0.5,0.4,0.7c0.3,0.3,1.5,0.6,3.6,1.1
				c2.1,0.5,3.5,1,4.3,1.7c0.8,0.7,1.2,1.6,1.2,2.9c0,1.3-0.6,2.5-1.7,3.4c-1.1,1-2.8,1.4-4.9,1.4c-2,0-3.6-0.4-4.7-1.2
				C400.4,133.2,399.7,132.1,399.3,130.7"/>
			<path class="st1" d="M415.8,114.8h3.9v3.6h-3.9V114.8z M415.8,120.3h3.9v14.6h-3.9V120.3z"/>
			<path class="st1" d="M429.8,120.3v3.1h-2.6v5.9c0,1.2,0,1.9,0.1,2.1c0,0.2,0.2,0.4,0.3,0.5c0.2,0.1,0.4,0.2,0.7,0.2
				c0.4,0,0.9-0.1,1.5-0.4l0.3,3c-0.9,0.4-1.9,0.6-3,0.6c-0.7,0-1.3-0.1-1.9-0.3c-0.6-0.2-1-0.5-1.2-0.9c-0.3-0.4-0.4-0.9-0.5-1.5
				c-0.1-0.4-0.1-1.4-0.1-2.7v-6.3h-1.8v-3.1h1.8v-2.9l3.9-2.2v5.1H429.8z"/>
			<path class="st1" d="M430.2,120.3h4.1l3.5,10.3l3.4-10.3h4l-5.1,14l-0.9,2.5c-0.3,0.8-0.7,1.5-1,1.9c-0.3,0.4-0.7,0.8-1.1,1.1
				c-0.4,0.3-0.9,0.5-1.5,0.7c-0.6,0.2-1.2,0.2-2,0.2c-0.7,0-1.5-0.1-2.2-0.2l-0.3-3c0.6,0.1,1.1,0.2,1.6,0.2c0.9,0,1.6-0.3,2-0.8
				c0.4-0.5,0.8-1.2,1-2L430.2,120.3z"/>
			<path class="st2" d="M7.7,70.4c-0.7,2.9-3.1,5.8-3.6,8.9c33.9-16.5,88-0.2,88-0.2C50.7,65.2,15.9,69.2,7.7,70.4"/>
			<path class="st1" d="M88.2,76.9c-34.5-15.3-69.6-17-77.4-17.2c-1,2.7-3.7,3.7-4.5,6.6C49.5,59.7,88.2,76.9,88.2,76.9"/>
			<path class="st1" d="M84.1,74.2C57.9,57.1,24.3,49.8,15.7,48.2c-1.3,2.6-4.4,3.4-5.5,6.3C44.8,54.1,84.1,74.2,84.1,74.2"/>
			<path class="st1" d="M80.1,70.6C56.3,52,28.8,40.8,21.5,38.2c-1.5,2.2-4.7,2.6-6.1,5C47.4,46.3,80.1,70.6,80.1,70.6"/>
			<path class="st1" d="M78.3,67.7C57.2,42.9,31.5,30.4,28.4,29c-1.7,2-5.2,2.2-6.8,4.4C48.6,39.5,78.3,67.7,78.3,67.7"/>
			<path class="st1" d="M29.5,23.9c20.2,6,45.7,38.8,45.7,38.8C60.6,39.9,41.5,24.5,36.2,20.8C34.6,22.4,31.1,22.1,29.5,23.9"/>
			<path class="st1" d="M73.7,57.8C62.4,33.4,48.8,17.1,45.2,13.4c-1.4,1.1-4.8,0.3-6.2,1.5C57,26.3,73.7,57.8,73.7,57.8"/>
			<path class="st1" d="M73.6,53.8C65.4,28.6,56.4,10.9,54.2,7.5c-1.6,0.9-5.2,0.1-7,1.3C63.9,23.7,73.6,53.8,73.6,53.8"/>
			<path class="st1" d="M73.8,49c-4-27.6-9.3-43.4-10.6-46.2c-1.4,0.6-5.1-0.4-7.1,0.7C68.5,23.1,73.8,49,73.8,49"/>
			<path class="st1" d="M70.8,1.2l-5.4,0c7.1,6.3,9.4,40.5,9.4,40.5C75.6,13,70.8,1.2,70.8,1.2"/>
		</g>
	</g>
</g>
</svg>
